<svg width="314.10693359375px" 
height="121.4088623046875px"
	xmlns="http://www.w3.org/2000/svg" 
viewBox="92.946533203125 14.295568847656249 314.10693359375 121.4088623046875" 
style="background:rgb(29,181,147)" 
preserveAspectRatio="xMidYMid">
	<defs>
		<linearGradient id="editing-shadow-gradient1" x1="0" x2="0" y1="0" y2="1">
			<stop offset="0" stop-color="#000000" stop-opacity="0"></stop>
			<stop offset="0.2" stop-color="#000000" stop-opacity="0"></stop>
			<stop offset="1" stop-color="#000000" stop-opacity="1"></stop>
		</linearGradient>
		<linearGradient id="editing-shadow-gradient2" x1="-0.2547095802227721" x2="1.2547095802227721" y1="-0.15605902899050716" y2="1.1560590289905073">
			<stop offset="0" stop-color="#ffffff"></stop>
			<stop offset="1" stop-color="#fec918"></stop>
		</linearGradient>
		<filter id="editing-shadow" x="-100%" y="-100%" width="300%" height="300%">
			<feGaussianBlur stdDeviation="2"></feGaussianBlur>
			<feComposite operator="in" in2="SourceGraphic"></feComposite>
			<feGaussianBlur stdDeviation="1"></feGaussianBlur>
		</filter>
	</defs>
	<g transform="translate(250,75)">
		<g transform="translate(-20.4, -1.2)">
			<g transform="skewX(45)">
				<g filter="url(#editing-shadow)">
					<g transform="translate(-70.59097504615784, 24)">
						<path d="M17.60-30.34L17.60-30.34L17.60-30.34Q21.06-33.92 28.35-33.92L28.35-33.92L28.35-33.92Q32.38-33.92 34.59-31.78L34.59-31.78L34.59-31.78Q36.80-29.63 36.80-25.70L36.80-25.70L36.80-25.70Q36.80-21.76 34.59-18.98L34.59-18.98L34.59-18.98Q32.38-16.19 28.29-15.04L28.29-15.04L28.29-15.04Q28.61-13.76 29.06-12.42L29.06-12.42L29.95-9.86L29.95-9.86Q31.17-6.59 32.13-5.44L32.13-5.44L32.13-5.44Q33.09-4.29 34.37-3.90L34.37-3.90L34.37-3.90Q33.66-1.28 31.10 0.13L31.10 0.13L31.10 0.13Q29.06 1.28 26.24 1.28L26.24 1.28L26.24 1.28Q17.98 1.28 16.90-11.46L16.90-11.46L16.90-11.46Q16.70-13.25 16.70-15.04L16.70-15.04L16.70-15.04Q19.90-15.94 22.14-18.94L22.14-18.94L22.14-18.94Q24.38-21.95 24.38-25.47L24.38-25.47L24.38-25.47Q24.38-28.99 21.89-28.99L21.89-28.99L21.89-28.99Q20.10-28.99 18.69-27.01L18.69-27.01L18.69-27.01Q17.28-25.02 16.64-21.63L16.64-21.63L12.42 0L-0.51 1.28L8.45-44.80L21.31-46.08L19.84-38.46L19.84-38.46Q18.88-33.09 17.60-30.34ZM53.70 1.28L53.70 1.28L53.70 1.28Q39.62 1.28 39.62-11.97L39.62-11.97L39.62-11.97Q39.62-21.38 44.80-27.46L44.80-27.46L44.80-27.46Q50.30-33.92 59.84-33.92L59.84-33.92L59.84-33.92Q66.75-33.92 70.27-30.72L70.27-30.72L70.27-30.72Q73.79-27.52 73.79-20.80L73.79-20.80L73.79-20.80Q73.79-10.56 68.29-4.61L68.29-4.61L68.29-4.61Q62.91 1.28 53.70 1.28ZM55.36-26.56L55.36-26.56L55.36-26.56Q54.59-24.83 53.98-22.24L53.98-22.24L53.98-22.24Q53.38-19.65 52.61-15.55L52.61-15.55L52.61-15.55Q51.84-11.46 51.84-6.40L51.84-6.40L51.84-6.40Q51.84-4.74 52.38-3.65L52.38-3.65L52.38-3.65Q52.93-2.56 54.40-2.56L54.40-2.56L54.40-2.56Q55.87-2.56 56.80-3.26L56.80-3.26L56.80-3.26Q57.73-3.97 58.43-5.63L58.43-5.63L58.43-5.63Q59.71-8.58 60.74-14.05L60.74-14.05L60.74-14.05Q61.76-19.52 61.86-21.89L61.86-21.89L61.86-21.89Q61.95-24.26 61.95-26.02L61.95-26.02L61.95-26.02Q61.95-27.78 61.44-28.93L61.44-28.93L61.44-28.93Q60.93-30.08 59.49-30.08L59.49-30.08L59.49-30.08Q58.05-30.08 57.09-29.18L57.09-29.18L57.09-29.18Q56.13-28.29 55.36-26.56ZM78.59-6.40L78.59-6.40L78.59-6.40Q78.59-8.13 79.49-12.48L79.49-12.48L82.88-29.76L79.10-29.76L79.36-31.68L79.36-31.68Q87.04-33.98 94.46-39.62L94.46-39.62L97.54-39.62L96.00-32.64L100.99-32.64L100.42-29.76L95.49-29.76L92.22-12.48L92.22-12.48Q91.39-8.51 91.39-7.17L91.39-7.17L91.39-7.17Q91.39-4.10 94.08-3.46L94.08-3.46L94.08-3.46Q93.44-1.28 91.14 0L91.14 0L91.14 0Q88.83 1.28 85.57 1.28L85.57 1.28L85.57 1.28Q82.30 1.28 80.45-0.77L80.45-0.77L80.45-0.77Q78.59-2.82 78.59-6.40ZM116.03-3.52L116.03-3.52L116.03-3.52Q114.05 1.28 107.71 1.28L107.71 1.28L107.71 1.28Q104.45 1.28 102.40-0.96L102.40-0.96L102.40-0.96Q100.67-2.94 100.67-4.93L100.67-4.93L100.67-4.93Q100.67-10.11 103.04-20.22L103.04-20.22L105.41-32.64L118.40-33.92L114.50-13.70L114.50-13.70Q113.41-8.96 113.41-7.30L113.41-7.30L113.41-7.30Q113.41-3.65 116.03-3.52ZM106.56-41.54L106.56-41.54L106.56-41.54Q106.56-44.03 108.64-45.38L108.64-45.38L108.64-45.38Q110.72-46.72 113.73-46.72L113.73-46.72L113.73-46.72Q116.74-46.72 118.56-45.38L118.56-45.38L118.56-45.38Q120.38-44.03 120.38-41.54L120.38-41.54L120.38-41.54Q120.38-39.04 118.37-37.76L118.37-37.76L118.37-37.76Q116.35-36.48 113.34-36.48L113.34-36.48L113.34-36.48Q110.34-36.48 108.45-37.76L108.45-37.76L108.45-37.76Q106.56-39.04 106.56-41.54ZM136.83-3.52L136.83-3.52L136.83-3.52Q134.85 1.28 128.51 1.28L128.51 1.28L128.51 1.28Q125.25 1.28 123.20-0.96L123.20-0.96L123.20-0.96Q121.47-2.94 121.47-4.93L121.47-4.93L121.47-4.93Q121.47-10.11 123.84-20.22L123.84-20.22L126.21-32.64L139.20-33.92L135.30-13.70L135.30-13.70Q134.21-8.96 134.21-7.30L134.21-7.30L134.21-7.30Q134.21-3.65 136.83-3.52ZM127.36-41.54L127.36-41.54L127.36-41.54Q127.36-44.03 129.44-45.38L129.44-45.38L129.44-45.38Q131.52-46.72 134.53-46.72L134.53-46.72L134.53-46.72Q137.54-46.72 139.36-45.38L139.36-45.38L139.36-45.38Q141.18-44.03 141.18-41.54L141.18-41.54L141.18-41.54Q141.18-39.04 139.17-37.76L139.17-37.76L139.17-37.76Q137.15-36.48 134.14-36.48L134.14-36.48L134.14-36.48Q131.14-36.48 129.25-37.76L129.25-37.76L129.25-37.76Q127.36-39.04 127.36-41.54Z" fill="url(#editing-shadow-gradient1)"></path>
					</g>
				</g>
			</g>
		</g>
		<g>
			<g transform="translate(-70.59098267555237, 24)">
				<path d="M17.60-30.34L17.60-30.34L17.60-30.34Q21.06-33.92 28.35-33.92L28.35-33.92L28.35-33.92Q32.38-33.92 34.59-31.78L34.59-31.78L34.59-31.78Q36.80-29.63 36.80-25.70L36.80-25.70L36.80-25.70Q36.80-21.76 34.59-18.98L34.59-18.98L34.59-18.98Q32.38-16.19 28.29-15.04L28.29-15.04L28.29-15.04Q28.61-13.76 29.06-12.42L29.06-12.42L29.95-9.86L29.95-9.86Q31.17-6.59 32.13-5.44L32.13-5.44L32.13-5.44Q33.09-4.29 34.37-3.90L34.37-3.90L34.37-3.90Q33.66-1.28 31.10 0.13L31.10 0.13L31.10 0.13Q29.06 1.28 26.24 1.28L26.24 1.28L26.24 1.28Q17.98 1.28 16.90-11.46L16.90-11.46L16.90-11.46Q16.70-13.25 16.70-15.04L16.70-15.04L16.70-15.04Q19.90-15.94 22.14-18.94L22.14-18.94L22.14-18.94Q24.38-21.95 24.38-25.47L24.38-25.47L24.38-25.47Q24.38-28.99 21.89-28.99L21.89-28.99L21.89-28.99Q20.10-28.99 18.69-27.01L18.69-27.01L18.69-27.01Q17.28-25.02 16.64-21.63L16.64-21.63L12.42 0L-0.51 1.28L8.45-44.80L21.31-46.08L19.84-38.46L19.84-38.46Q18.88-33.09 17.60-30.34ZM53.70 1.28L53.70 1.28L53.70 1.28Q39.62 1.28 39.62-11.97L39.62-11.97L39.62-11.97Q39.62-21.38 44.80-27.46L44.80-27.46L44.80-27.46Q50.30-33.92 59.84-33.92L59.84-33.92L59.84-33.92Q66.75-33.92 70.27-30.72L70.27-30.72L70.27-30.72Q73.79-27.52 73.79-20.80L73.79-20.80L73.79-20.80Q73.79-10.56 68.29-4.61L68.29-4.61L68.29-4.61Q62.91 1.28 53.70 1.28ZM55.36-26.56L55.36-26.56L55.36-26.56Q54.59-24.83 53.98-22.24L53.98-22.24L53.98-22.24Q53.38-19.65 52.61-15.55L52.61-15.55L52.61-15.55Q51.84-11.46 51.84-6.40L51.84-6.40L51.84-6.40Q51.84-4.74 52.38-3.65L52.38-3.65L52.38-3.65Q52.93-2.56 54.40-2.56L54.40-2.56L54.40-2.56Q55.87-2.56 56.80-3.26L56.80-3.26L56.80-3.26Q57.73-3.97 58.43-5.63L58.43-5.63L58.43-5.63Q59.71-8.58 60.74-14.05L60.74-14.05L60.74-14.05Q61.76-19.52 61.86-21.89L61.86-21.89L61.86-21.89Q61.95-24.26 61.95-26.02L61.95-26.02L61.95-26.02Q61.95-27.78 61.44-28.93L61.44-28.93L61.44-28.93Q60.93-30.08 59.49-30.08L59.49-30.08L59.49-30.08Q58.05-30.08 57.09-29.18L57.09-29.18L57.09-29.18Q56.13-28.29 55.36-26.56ZM78.59-6.40L78.59-6.40L78.59-6.40Q78.59-8.13 79.49-12.48L79.49-12.48L82.88-29.76L79.10-29.76L79.36-31.68L79.36-31.68Q87.04-33.98 94.46-39.62L94.46-39.62L97.54-39.62L96.00-32.64L100.99-32.64L100.42-29.76L95.49-29.76L92.22-12.48L92.22-12.48Q91.39-8.51 91.39-7.17L91.39-7.17L91.39-7.17Q91.39-4.10 94.08-3.46L94.08-3.46L94.08-3.46Q93.44-1.28 91.14 0L91.14 0L91.14 0Q88.83 1.28 85.57 1.28L85.57 1.28L85.57 1.28Q82.30 1.28 80.45-0.77L80.45-0.77L80.45-0.77Q78.59-2.82 78.59-6.40ZM116.03-3.52L116.03-3.52L116.03-3.52Q114.05 1.28 107.71 1.28L107.71 1.28L107.71 1.28Q104.45 1.28 102.40-0.96L102.40-0.96L102.40-0.96Q100.67-2.94 100.67-4.93L100.67-4.93L100.67-4.93Q100.67-10.11 103.04-20.22L103.04-20.22L105.41-32.64L118.40-33.92L114.50-13.70L114.50-13.70Q113.41-8.96 113.41-7.30L113.41-7.30L113.41-7.30Q113.41-3.65 116.03-3.52ZM106.56-41.54L106.56-41.54L106.56-41.54Q106.56-44.03 108.64-45.38L108.64-45.38L108.64-45.38Q110.72-46.72 113.73-46.72L113.73-46.72L113.73-46.72Q116.74-46.72 118.56-45.38L118.56-45.38L118.56-45.38Q120.38-44.03 120.38-41.54L120.38-41.54L120.38-41.54Q120.38-39.04 118.37-37.76L118.37-37.76L118.37-37.76Q116.35-36.48 113.34-36.48L113.34-36.48L113.34-36.48Q110.34-36.48 108.45-37.76L108.45-37.76L108.45-37.76Q106.56-39.04 106.56-41.54ZM136.83-3.52L136.83-3.52L136.83-3.52Q134.85 1.28 128.51 1.28L128.51 1.28L128.51 1.28Q125.25 1.28 123.20-0.96L123.20-0.96L123.20-0.96Q121.47-2.94 121.47-4.93L121.47-4.93L121.47-4.93Q121.47-10.11 123.84-20.22L123.84-20.22L126.21-32.64L139.20-33.92L135.30-13.70L135.30-13.70Q134.21-8.96 134.21-7.30L134.21-7.30L134.21-7.30Q134.21-3.65 136.83-3.52ZM127.36-41.54L127.36-41.54L127.36-41.54Q127.36-44.03 129.44-45.38L129.44-45.38L129.44-45.38Q131.52-46.72 134.53-46.72L134.53-46.72L134.53-46.72Q137.54-46.72 139.36-45.38L139.36-45.38L139.36-45.38Q141.18-44.03 141.18-41.54L141.18-41.54L141.18-41.54Q141.18-39.04 139.17-37.76L139.17-37.76L139.17-37.76Q137.15-36.48 134.14-36.48L134.14-36.48L134.14-36.48Q131.14-36.48 129.25-37.76L129.25-37.76L129.25-37.76Q127.36-39.04 127.36-41.54Z" fill="url(#editing-shadow-gradient2)"></path>
			</g>
		</g>
	</g>
	<style>text {
  font-size: 64px;
  font-family: Arial Black;
  dominant-baseline: central;
  text-anchor: middle;
}</style>
</svg>